<svg xmlns="http://www.w3.org/2000/svg" xmlns:xlink="http://www.w3.org/1999/xlink" width="3000" zoomAndPan="magnify" viewBox="0 0 2250 299.999988" height="400" preserveAspectRatio="xMidYMid meet" version="1.0"><defs><g/><clipPath id="224594d874"><rect x="0" width="177" y="0" height="296"/></clipPath><clipPath id="5ea87b4026"><rect x="0" width="208" y="0" height="293"/></clipPath><clipPath id="39265b4eeb"><path d="M 298 93 L 1925.28125 93 L 1925.28125 206 L 298 206 Z M 298 93 " clip-rule="nonzero"/></clipPath><clipPath id="5798404fef"><path d="M 6 0.359375 L 96 0.359375 L 96 91 L 6 91 Z M 6 0.359375 " clip-rule="nonzero"/></clipPath><clipPath id="c8e6e9dd73"><path d="M 347 0.359375 L 416 0.359375 L 416 91 L 347 91 Z M 347 0.359375 " clip-rule="nonzero"/></clipPath><clipPath id="601c5fc7eb"><path d="M 466 0.359375 L 559 0.359375 L 559 91 L 466 91 Z M 466 0.359375 " clip-rule="nonzero"/></clipPath><clipPath id="3157ee7542"><path d="M 1026 0.359375 L 1095 0.359375 L 1095 91 L 1026 91 Z M 1026 0.359375 " clip-rule="nonzero"/></clipPath><clipPath id="295f11703f"><path d="M 1513 0.359375 L 1582 0.359375 L 1582 91 L 1513 91 Z M 1513 0.359375 " clip-rule="nonzero"/></clipPath><clipPath id="f5a0a5b776"><rect x="0" width="1628" y="0" height="113"/></clipPath><clipPath id="fa9f3d7360"><rect x="0" width="1926" y="0" height="300"/></clipPath></defs><g transform="matrix(1, 0, 0, 1, 0, 0)"><g clip-path="url(#fa9f3d7360)"><g transform="matrix(1, 0, 0, 1, 76, 4)"><g clip-path="url(#224594d874)"><g fill="#1a1a1a" fill-opacity="1"><g transform="translate(2.092601, 272.948961)"><g><path d="M 75.5 0 L 4.34375 -178.5625 L 28.3125 -178.5625 L 57.90625 -103.3125 L 85.96875 -32.390625 L 113.765625 -103.3125 L 143.625 -178.5625 L 167.34375 -178.5625 L 96.421875 0 Z M 75.5 0 "/></g></g></g></g></g><g transform="matrix(1, 0, 0, 1, 0, 0)"><g clip-path="url(#5ea87b4026)"><g fill="#1a1a1a" fill-opacity="1"><g transform="translate(-5.141664, 195.185422)"><g><path d="M 105.5 3.3125 C 92.414062 3.3125 80.351562 1.019531 69.3125 -3.5625 C 58.269531 -8.15625 48.671875 -14.570312 40.515625 -22.8125 C 32.359375 -31.050781 26.03125 -40.816406 21.53125 -52.109375 C 17.03125 -63.398438 14.78125 -75.757812 14.78125 -89.1875 C 14.78125 -102.601562 16.988281 -114.914062 21.40625 -126.125 C 25.820312 -137.34375 32.101562 -147.113281 40.25 -155.4375 C 48.40625 -163.757812 57.960938 -170.210938 68.921875 -174.796875 C 79.878906 -179.390625 91.898438 -181.6875 104.984375 -181.6875 C 118.578125 -181.6875 131.144531 -179.222656 142.6875 -174.296875 C 154.238281 -169.367188 164.21875 -162.488281 172.625 -153.65625 C 181.039062 -144.820312 187.117188 -134.539062 190.859375 -122.8125 L 166.390625 -122.8125 C 160.785156 -134.363281 152.71875 -143.320312 142.1875 -149.6875 C 131.65625 -156.0625 119.507812 -159.25 105.75 -159.25 C 92.5 -159.25 80.734375 -156.273438 70.453125 -150.328125 C 60.179688 -144.390625 52.15625 -136.15625 46.375 -125.625 C 40.601562 -115.09375 37.71875 -102.945312 37.71875 -89.1875 C 37.71875 -75.425781 40.644531 -63.28125 46.5 -52.75 C 52.363281 -42.21875 60.429688 -33.976562 70.703125 -28.03125 C 80.984375 -22.082031 92.75 -19.109375 106 -19.109375 C 118.0625 -19.109375 128.765625 -21.484375 138.109375 -26.234375 C 147.453125 -30.992188 155.050781 -37.578125 160.90625 -45.984375 C 166.769531 -54.398438 170.46875 -64.210938 172 -75.421875 L 99.375 -75.421875 L 99.375 -96.828125 L 196.203125 -96.828125 C 196.546875 -77.296875 192.9375 -60.007812 185.375 -44.96875 C 177.8125 -29.9375 167.191406 -18.128906 153.515625 -9.546875 C 139.847656 -0.972656 123.84375 3.3125 105.5 3.3125 Z M 105.5 3.3125 "/></g></g></g></g></g><g clip-path="url(#39265b4eeb)"><g transform="matrix(1, 0, 0, 1, 298, 93)"><g clip-path="url(#f5a0a5b776)"><g clip-path="url(#5798404fef)"><g fill="#1a1a1a" fill-opacity="1"><g transform="translate(1.018399, 89.122916)"><g><path d="M 50.46875 1.65625 C 45.4375 1.65625 40.648438 0.90625 36.109375 -0.59375 C 31.566406 -2.101562 27.414062 -4.21875 23.65625 -6.9375 C 19.894531 -9.664062 16.628906 -12.898438 13.859375 -16.640625 C 11.085938 -20.378906 8.953125 -24.488281 7.453125 -28.96875 C 5.953125 -33.457031 5.203125 -38.195312 5.203125 -43.1875 C 5.203125 -48.207031 5.953125 -52.96875 7.453125 -57.46875 C 8.953125 -61.976562 11.085938 -66.101562 13.859375 -69.84375 C 16.628906 -73.582031 19.894531 -76.816406 23.65625 -79.546875 C 27.414062 -82.273438 31.566406 -84.390625 36.109375 -85.890625 C 40.648438 -87.390625 45.4375 -88.140625 50.46875 -88.140625 C 55.039062 -88.140625 59.535156 -87.492188 63.953125 -86.203125 C 68.367188 -84.910156 72.445312 -83.015625 76.1875 -80.515625 C 79.925781 -78.023438 83.144531 -74.972656 85.84375 -71.359375 C 88.550781 -67.742188 90.476562 -63.632812 91.625 -59.03125 L 80.21875 -59.03125 C 78.601562 -62.96875 76.328125 -66.335938 73.390625 -69.140625 C 70.453125 -71.953125 67.015625 -74.097656 63.078125 -75.578125 C 59.148438 -77.054688 54.863281 -77.796875 50.21875 -77.796875 C 45.53125 -77.796875 41.144531 -76.953125 37.0625 -75.265625 C 32.976562 -73.578125 29.382812 -71.175781 26.28125 -68.0625 C 23.175781 -64.957031 20.753906 -61.289062 19.015625 -57.0625 C 17.285156 -52.832031 16.421875 -48.207031 16.421875 -43.1875 C 16.421875 -38.113281 17.285156 -33.460938 19.015625 -29.234375 C 20.753906 -25.003906 23.175781 -21.359375 26.28125 -18.296875 C 29.382812 -15.234375 32.976562 -12.863281 37.0625 -11.1875 C 41.144531 -9.519531 45.53125 -8.6875 50.21875 -8.6875 C 55.125 -8.6875 59.457031 -9.375 63.21875 -10.75 C 66.976562 -12.125 70.210938 -14.023438 72.921875 -16.453125 C 75.628906 -18.878906 77.796875 -21.695312 79.421875 -24.90625 C 81.046875 -28.125 82.15625 -31.570312 82.75 -35.25 L 49.84375 -35.25 L 49.84375 -45.40625 L 94.421875 -45.40625 C 94.421875 -38.894531 93.457031 -32.785156 91.53125 -27.078125 C 89.601562 -21.367188 86.757812 -16.367188 83 -12.078125 C 79.238281 -7.785156 74.628906 -4.421875 69.171875 -1.984375 C 63.722656 0.441406 57.488281 1.65625 50.46875 1.65625 Z M 50.46875 1.65625 "/></g></g></g></g><g fill="#1a1a1a" fill-opacity="1"><g transform="translate(142.036393, 89.122916)"><g><path d="M 22.953125 0 L 11.734375 0 L 11.734375 -86.234375 L 22.953125 -86.234375 Z M 22.953125 0 "/></g></g></g><g fill="#1a1a1a" fill-opacity="1"><g transform="translate(218.139285, 89.122916)"><g><path d="M 52.1875 0 L 11.734375 0 L 11.734375 -86.234375 L 48.578125 -86.234375 C 53.347656 -86.234375 57.582031 -85.28125 61.28125 -83.375 C 64.976562 -81.476562 67.882812 -78.828125 70 -75.421875 C 72.113281 -72.015625 73.171875 -68.050781 73.171875 -63.53125 C 73.171875 -60.914062 72.660156 -58.410156 71.640625 -56.015625 C 70.628906 -53.628906 69.269531 -51.523438 67.5625 -49.703125 C 65.851562 -47.890625 63.921875 -46.519531 61.765625 -45.59375 C 64.804688 -44.707031 67.570312 -43.226562 70.0625 -41.15625 C 72.5625 -39.082031 74.539062 -36.609375 76 -33.734375 C 77.457031 -30.859375 78.1875 -27.726562 78.1875 -24.34375 C 78.1875 -20.457031 77.46875 -17.003906 76.03125 -13.984375 C 74.59375 -10.960938 72.65625 -8.414062 70.21875 -6.34375 C 67.789062 -4.269531 65.019531 -2.691406 61.90625 -1.609375 C 58.800781 -0.535156 55.5625 0 52.1875 0 Z M 23.078125 -76.46875 L 23.078125 -48.828125 L 48.0625 -48.828125 C 50.644531 -48.828125 52.96875 -49.4375 55.03125 -50.65625 C 57.101562 -51.882812 58.753906 -53.554688 59.984375 -55.671875 C 61.210938 -57.785156 61.828125 -60.128906 61.828125 -62.703125 C 61.828125 -65.285156 61.210938 -67.613281 59.984375 -69.6875 C 58.753906 -71.757812 57.101562 -73.40625 55.03125 -74.625 C 52.96875 -75.851562 50.664062 -76.46875 48.125 -76.46875 Z M 23.078125 -40.140625 L 23.078125 -9.890625 L 51.296875 -9.890625 C 54.171875 -9.890625 56.769531 -10.554688 59.09375 -11.890625 C 61.414062 -13.222656 63.253906 -15.039062 64.609375 -17.34375 C 65.960938 -19.644531 66.640625 -22.253906 66.640625 -25.171875 C 66.640625 -27.921875 65.960938 -30.425781 64.609375 -32.6875 C 63.253906 -34.945312 61.4375 -36.753906 59.15625 -38.109375 C 56.875 -39.460938 54.296875 -40.140625 51.421875 -40.140625 Z M 23.078125 -40.140625 "/></g></g></g><g clip-path="url(#c8e6e9dd73)"><g fill="#1a1a1a" fill-opacity="1"><g transform="translate(342.801715, 89.122916)"><g><path d="M 38.609375 1.84375 C 32.773438 1.84375 27.722656 1.070312 23.453125 -0.46875 C 19.191406 -2.019531 15.675781 -4.082031 12.90625 -6.65625 C 10.132812 -9.238281 8.082031 -12.125 6.75 -15.3125 C 5.414062 -18.5 4.75 -21.722656 4.75 -24.984375 L 15.984375 -24.984375 C 15.984375 -21.984375 16.878906 -19.171875 18.671875 -16.546875 C 20.472656 -13.929688 23.050781 -11.816406 26.40625 -10.203125 C 29.769531 -8.597656 33.816406 -7.796875 38.546875 -7.796875 C 45.898438 -7.796875 51.539062 -9.140625 55.46875 -11.828125 C 59.40625 -14.515625 61.375 -18.519531 61.375 -23.84375 C 61.375 -27.21875 60.390625 -29.941406 58.421875 -32.015625 C 56.460938 -34.085938 53.789062 -35.703125 50.40625 -36.859375 C 47.03125 -38.023438 43.1875 -38.925781 38.875 -39.5625 C 36 -40.03125 33.054688 -40.632812 30.046875 -41.375 C 27.046875 -42.113281 24.171875 -43.070312 21.421875 -44.25 C 18.679688 -45.4375 16.222656 -46.90625 14.046875 -48.65625 C 11.867188 -50.414062 10.144531 -52.570312 8.875 -55.125 C 7.601562 -57.6875 6.96875 -60.703125 6.96875 -64.171875 C 6.96875 -67.378906 7.550781 -70.429688 8.71875 -73.328125 C 9.882812 -76.222656 11.710938 -78.78125 14.203125 -81 C 16.691406 -83.21875 19.910156 -84.960938 23.859375 -86.234375 C 27.816406 -87.503906 32.609375 -88.140625 38.234375 -88.140625 C 44.992188 -88.140625 50.675781 -87.09375 55.28125 -85 C 59.894531 -82.90625 63.382812 -80.019531 65.75 -76.34375 C 68.125 -72.664062 69.3125 -68.414062 69.3125 -63.59375 L 58.015625 -63.59375 C 58.015625 -66.46875 57.253906 -69.003906 55.734375 -71.203125 C 54.210938 -73.398438 51.972656 -75.125 49.015625 -76.375 C 46.054688 -77.625 42.421875 -78.25 38.109375 -78.25 C 34.222656 -78.25 30.988281 -77.84375 28.40625 -77.03125 C 25.820312 -76.226562 23.789062 -75.160156 22.3125 -73.828125 C 20.832031 -72.503906 19.773438 -70.992188 19.140625 -69.296875 C 18.515625 -67.609375 18.203125 -65.878906 18.203125 -64.109375 C 18.203125 -61.109375 19.140625 -58.625 21.015625 -56.65625 C 22.898438 -54.6875 25.640625 -53.109375 29.234375 -51.921875 C 32.828125 -50.742188 37.203125 -49.796875 42.359375 -49.078125 C 45.234375 -48.609375 48.117188 -47.992188 51.015625 -47.234375 C 53.910156 -46.472656 56.65625 -45.488281 59.25 -44.28125 C 61.851562 -43.082031 64.164062 -41.5625 66.1875 -39.71875 C 68.21875 -37.882812 69.816406 -35.664062 70.984375 -33.0625 C 72.148438 -30.46875 72.734375 -27.394531 72.734375 -23.84375 C 72.734375 -18.46875 71.359375 -13.859375 68.609375 -10.015625 C 65.859375 -6.171875 61.9375 -3.234375 56.84375 -1.203125 C 51.75 0.828125 45.671875 1.84375 38.609375 1.84375 Z M 38.609375 1.84375 "/></g></g></g></g><g clip-path="url(#601c5fc7eb)"><g fill="#1a1a1a" fill-opacity="1"><g transform="translate(461.378354, 89.122916)"><g><path d="M 51.171875 1.71875 C 46.097656 1.71875 41.253906 0.96875 36.640625 -0.53125 C 32.035156 -2.039062 27.820312 -4.164062 24 -6.90625 C 20.175781 -9.65625 16.847656 -12.898438 14.015625 -16.640625 C 11.179688 -20.378906 8.992188 -24.488281 7.453125 -28.96875 C 5.910156 -33.457031 5.140625 -38.195312 5.140625 -43.1875 C 5.140625 -48.207031 5.910156 -52.96875 7.453125 -57.46875 C 8.992188 -61.976562 11.179688 -66.101562 14.015625 -69.84375 C 16.847656 -73.582031 20.175781 -76.816406 24 -79.546875 C 27.820312 -82.273438 32.035156 -84.390625 36.640625 -85.890625 C 41.253906 -87.390625 46.097656 -88.140625 51.171875 -88.140625 C 56.285156 -88.140625 61.144531 -87.390625 65.75 -85.890625 C 70.363281 -84.390625 74.59375 -82.273438 78.4375 -79.546875 C 82.28125 -76.816406 85.617188 -73.582031 88.453125 -69.84375 C 91.285156 -66.101562 93.472656 -61.976562 95.015625 -57.46875 C 96.554688 -52.96875 97.328125 -48.207031 97.328125 -43.1875 C 97.328125 -38.195312 96.554688 -33.457031 95.015625 -28.96875 C 93.472656 -24.488281 91.285156 -20.378906 88.453125 -16.640625 C 85.617188 -12.898438 82.28125 -9.65625 78.4375 -6.90625 C 74.59375 -4.164062 70.363281 -2.039062 65.75 -0.53125 C 61.144531 0.96875 56.285156 1.71875 51.171875 1.71875 Z M 51.171875 -8.6875 C 55.992188 -8.6875 60.515625 -9.550781 64.734375 -11.28125 C 68.960938 -13.019531 72.679688 -15.453125 75.890625 -18.578125 C 79.109375 -21.703125 81.613281 -25.359375 83.40625 -29.546875 C 85.207031 -33.734375 86.109375 -38.28125 86.109375 -43.1875 C 86.109375 -48.082031 85.207031 -52.632812 83.40625 -56.84375 C 81.613281 -61.050781 79.109375 -64.71875 75.890625 -67.84375 C 72.679688 -70.96875 68.960938 -73.40625 64.734375 -75.15625 C 60.515625 -76.914062 55.992188 -77.796875 51.171875 -77.796875 C 46.347656 -77.796875 41.832031 -76.914062 37.625 -75.15625 C 33.425781 -73.40625 29.726562 -70.96875 26.53125 -67.84375 C 23.34375 -64.71875 20.847656 -61.050781 19.046875 -56.84375 C 17.253906 -52.632812 16.359375 -48.082031 16.359375 -43.1875 C 16.359375 -38.28125 17.253906 -33.734375 19.046875 -29.546875 C 20.847656 -25.359375 23.34375 -21.703125 26.53125 -18.578125 C 29.726562 -15.453125 33.425781 -13.019531 37.625 -11.28125 C 41.832031 -9.550781 46.347656 -8.6875 51.171875 -8.6875 Z M 51.171875 -8.6875 "/></g></g></g></g><g fill="#1a1a1a" fill-opacity="1"><g transform="translate(605.249084, 89.122916)"><g><path d="M 74.375 -18.640625 L 74.375 -86.234375 L 85.53125 -86.234375 L 85.53125 0 L 76.03125 0 L 22.953125 -67.40625 L 22.953125 0 L 11.734375 0 L 11.734375 -86.234375 L 21.171875 -86.234375 L 74.3125 -18.640625 Z M 74.375 -18.640625 "/></g></g></g><g fill="#1a1a1a" fill-opacity="1"><g transform="translate(743.921488, 89.122916)"><g/></g></g><g fill="#1a1a1a" fill-opacity="1"><g transform="translate(817.425216, 89.122916)"><g><path d="M 48.375 0 L 37.984375 0 L 1.265625 -86.234375 L 13.1875 -86.234375 L 43.125 -14.515625 L 43.3125 -14.703125 L 73.109375 -86.234375 L 85.03125 -86.234375 Z M 48.375 0 "/></g></g></g><g fill="#1a1a1a" fill-opacity="1"><g transform="translate(945.193959, 89.122916)"><g><path d="M 22.953125 0 L 11.734375 0 L 11.734375 -86.234375 L 22.953125 -86.234375 Z M 22.953125 0 "/></g></g></g><g clip-path="url(#3157ee7542)"><g fill="#1a1a1a" fill-opacity="1"><g transform="translate(1021.296874, 89.122916)"><g><path d="M 38.609375 1.84375 C 32.773438 1.84375 27.722656 1.070312 23.453125 -0.46875 C 19.191406 -2.019531 15.675781 -4.082031 12.90625 -6.65625 C 10.132812 -9.238281 8.082031 -12.125 6.75 -15.3125 C 5.414062 -18.5 4.75 -21.722656 4.75 -24.984375 L 15.984375 -24.984375 C 15.984375 -21.984375 16.878906 -19.171875 18.671875 -16.546875 C 20.472656 -13.929688 23.050781 -11.816406 26.40625 -10.203125 C 29.769531 -8.597656 33.816406 -7.796875 38.546875 -7.796875 C 45.898438 -7.796875 51.539062 -9.140625 55.46875 -11.828125 C 59.40625 -14.515625 61.375 -18.519531 61.375 -23.84375 C 61.375 -27.21875 60.390625 -29.941406 58.421875 -32.015625 C 56.460938 -34.085938 53.789062 -35.703125 50.40625 -36.859375 C 47.03125 -38.023438 43.1875 -38.925781 38.875 -39.5625 C 36 -40.03125 33.054688 -40.632812 30.046875 -41.375 C 27.046875 -42.113281 24.171875 -43.070312 21.421875 -44.25 C 18.679688 -45.4375 16.222656 -46.90625 14.046875 -48.65625 C 11.867188 -50.414062 10.144531 -52.570312 8.875 -55.125 C 7.601562 -57.6875 6.96875 -60.703125 6.96875 -64.171875 C 6.96875 -67.378906 7.550781 -70.429688 8.71875 -73.328125 C 9.882812 -76.222656 11.710938 -78.78125 14.203125 -81 C 16.691406 -83.21875 19.910156 -84.960938 23.859375 -86.234375 C 27.816406 -87.503906 32.609375 -88.140625 38.234375 -88.140625 C 44.992188 -88.140625 50.675781 -87.09375 55.28125 -85 C 59.894531 -82.90625 63.382812 -80.019531 65.75 -76.34375 C 68.125 -72.664062 69.3125 -68.414062 69.3125 -63.59375 L 58.015625 -63.59375 C 58.015625 -66.46875 57.253906 -69.003906 55.734375 -71.203125 C 54.210938 -73.398438 51.972656 -75.125 49.015625 -76.375 C 46.054688 -77.625 42.421875 -78.25 38.109375 -78.25 C 34.222656 -78.25 30.988281 -77.84375 28.40625 -77.03125 C 25.820312 -76.226562 23.789062 -75.160156 22.3125 -73.828125 C 20.832031 -72.503906 19.773438 -70.992188 19.140625 -69.296875 C 18.515625 -67.609375 18.203125 -65.878906 18.203125 -64.109375 C 18.203125 -61.109375 19.140625 -58.625 21.015625 -56.65625 C 22.898438 -54.6875 25.640625 -53.109375 29.234375 -51.921875 C 32.828125 -50.742188 37.203125 -49.796875 42.359375 -49.078125 C 45.234375 -48.609375 48.117188 -47.992188 51.015625 -47.234375 C 53.910156 -46.472656 56.65625 -45.488281 59.25 -44.28125 C 61.851562 -43.082031 64.164062 -41.5625 66.1875 -39.71875 C 68.21875 -37.882812 69.816406 -35.664062 70.984375 -33.0625 C 72.148438 -30.46875 72.734375 -27.394531 72.734375 -23.84375 C 72.734375 -18.46875 71.359375 -13.859375 68.609375 -10.015625 C 65.859375 -6.171875 61.9375 -3.234375 56.84375 -1.203125 C 51.75 0.828125 45.671875 1.84375 38.609375 1.84375 Z M 38.609375 1.84375 "/></g></g></g></g><g fill="#1a1a1a" fill-opacity="1"><g transform="translate(1139.873536, 89.122916)"><g><path d="M 45.78125 1.78125 C 40.75 1.78125 36.066406 0.957031 31.734375 -0.6875 C 27.398438 -2.34375 23.613281 -4.710938 20.375 -7.796875 C 17.144531 -10.878906 14.617188 -14.585938 12.796875 -18.921875 C 10.984375 -23.253906 10.078125 -28.085938 10.078125 -33.421875 L 10.078125 -86.296875 L 21.234375 -86.296875 L 21.234375 -34.234375 C 21.234375 -30.734375 21.769531 -27.4375 22.84375 -24.34375 C 23.925781 -21.257812 25.515625 -18.535156 27.609375 -16.171875 C 29.703125 -13.804688 32.269531 -11.957031 35.3125 -10.625 C 38.363281 -9.289062 41.851562 -8.625 45.78125 -8.625 C 49.625 -8.625 53.054688 -9.28125 56.078125 -10.59375 C 59.109375 -11.90625 61.675781 -13.734375 63.78125 -16.078125 C 65.894531 -18.421875 67.5 -21.132812 68.59375 -24.21875 C 69.695312 -27.300781 70.25 -30.597656 70.25 -34.109375 L 70.25 -86.296875 L 81.484375 -86.296875 L 81.484375 -33.421875 C 81.484375 -28.210938 80.601562 -23.453125 78.84375 -19.140625 C 77.09375 -14.835938 74.617188 -11.128906 71.421875 -8.015625 C 68.234375 -4.910156 64.460938 -2.5 60.109375 -0.78125 C 55.753906 0.925781 50.976562 1.78125 45.78125 1.78125 Z M 45.78125 1.78125 "/></g></g></g><g fill="#1a1a1a" fill-opacity="1"><g transform="translate(1272.840464, 89.122916)"><g><path d="M 84.59375 0 L 72.671875 0 L 64.484375 -19.53125 L 20.921875 -19.53125 L 12.75 0 L 0.828125 0 L 37.34375 -86.234375 L 48.125 -86.234375 Z M 42.296875 -70.453125 L 24.921875 -29.046875 L 60.484375 -29.046875 L 43.125 -70.453125 L 42.796875 -71.90625 L 42.671875 -71.90625 Z M 42.296875 -70.453125 "/></g></g></g><g fill="#1a1a1a" fill-opacity="1"><g transform="translate(1399.658302, 89.122916)"><g><path d="M 64.859375 0 L 11.734375 0 L 11.734375 -86.234375 L 22.953125 -86.234375 L 22.953125 -10.140625 L 64.859375 -10.140625 Z M 64.859375 0 "/></g></g></g><g clip-path="url(#295f11703f)"><g fill="#1a1a1a" fill-opacity="1"><g transform="translate(1508.472341, 89.122916)"><g><path d="M 38.609375 1.84375 C 32.773438 1.84375 27.722656 1.070312 23.453125 -0.46875 C 19.191406 -2.019531 15.675781 -4.082031 12.90625 -6.65625 C 10.132812 -9.238281 8.082031 -12.125 6.75 -15.3125 C 5.414062 -18.5 4.75 -21.722656 4.75 -24.984375 L 15.984375 -24.984375 C 15.984375 -21.984375 16.878906 -19.171875 18.671875 -16.546875 C 20.472656 -13.929688 23.050781 -11.816406 26.40625 -10.203125 C 29.769531 -8.597656 33.816406 -7.796875 38.546875 -7.796875 C 45.898438 -7.796875 51.539062 -9.140625 55.46875 -11.828125 C 59.40625 -14.515625 61.375 -18.519531 61.375 -23.84375 C 61.375 -27.21875 60.390625 -29.941406 58.421875 -32.015625 C 56.460938 -34.085938 53.789062 -35.703125 50.40625 -36.859375 C 47.03125 -38.023438 43.1875 -38.925781 38.875 -39.5625 C 36 -40.03125 33.054688 -40.632812 30.046875 -41.375 C 27.046875 -42.113281 24.171875 -43.070312 21.421875 -44.25 C 18.679688 -45.4375 16.222656 -46.90625 14.046875 -48.65625 C 11.867188 -50.414062 10.144531 -52.570312 8.875 -55.125 C 7.601562 -57.6875 6.96875 -60.703125 6.96875 -64.171875 C 6.96875 -67.378906 7.550781 -70.429688 8.71875 -73.328125 C 9.882812 -76.222656 11.710938 -78.78125 14.203125 -81 C 16.691406 -83.21875 19.910156 -84.960938 23.859375 -86.234375 C 27.816406 -87.503906 32.609375 -88.140625 38.234375 -88.140625 C 44.992188 -88.140625 50.675781 -87.09375 55.28125 -85 C 59.894531 -82.90625 63.382812 -80.019531 65.75 -76.34375 C 68.125 -72.664062 69.3125 -68.414062 69.3125 -63.59375 L 58.015625 -63.59375 C 58.015625 -66.46875 57.253906 -69.003906 55.734375 -71.203125 C 54.210938 -73.398438 51.972656 -75.125 49.015625 -76.375 C 46.054688 -77.625 42.421875 -78.25 38.109375 -78.25 C 34.222656 -78.25 30.988281 -77.84375 28.40625 -77.03125 C 25.820312 -76.226562 23.789062 -75.160156 22.3125 -73.828125 C 20.832031 -72.503906 19.773438 -70.992188 19.140625 -69.296875 C 18.515625 -67.609375 18.203125 -65.878906 18.203125 -64.109375 C 18.203125 -61.109375 19.140625 -58.625 21.015625 -56.65625 C 22.898438 -54.6875 25.640625 -53.109375 29.234375 -51.921875 C 32.828125 -50.742188 37.203125 -49.796875 42.359375 -49.078125 C 45.234375 -48.609375 48.117188 -47.992188 51.015625 -47.234375 C 53.910156 -46.472656 56.65625 -45.488281 59.25 -44.28125 C 61.851562 -43.082031 64.164062 -41.5625 66.1875 -39.71875 C 68.21875 -37.882812 69.816406 -35.664062 70.984375 -33.0625 C 72.148438 -30.46875 72.734375 -27.394531 72.734375 -23.84375 C 72.734375 -18.46875 71.359375 -13.859375 68.609375 -10.015625 C 65.859375 -6.171875 61.9375 -3.234375 56.84375 -1.203125 C 51.75 0.828125 45.671875 1.84375 38.609375 1.84375 Z M 38.609375 1.84375 "/></g></g></g></g></g></g></g></g></g></svg>